:SAMPLES-PER-SECOND 30
:FULLY-SPECIFIED
:DEGREES
164
root  -65.3345 41.6309 28.5785 0.826614 -46.3591 0.723282
RightUpLeg  -0.135726 -6.18905 -1.82791
RightLeg  3.37538 -1.73834 3.42213
RightFoot  -2.6769 0.374394 -5.17417
RightToes  2.91037e-010 0 -3.6325e-017
Spine  -0.579958 -0.834986 2.72471
Spine1  3.70663 -0.079032 -3.66655
HEad  -4.81278 0.400629 1.37376
LeftShoulder1  0.403013 0.272358 -4.49772
LeftArm  -17.1466 11.9405 -4.32888
LeftForeArm  8.47904 -1.92089 -1.59845
LeftHand  -0.244104 0.0205437 5.32207
RightShoulder  0.414632 -0.84645 8.07957
RightArm  -15.1966 -1.77224 -2.49475
RightForeArm  -3.28551 1.48571 4.94729
RightHand  -0.837388 1.87893 -13.5118
LeftUpLeg  -0.166635 4.00043 2.47883
LeftLeg  -0.477605 7.75967 -3.74457
LeftFoot  -0.577766 -0.0804438 0.891293
LeftToes  -2.38291e-010 7.29328e-011 -2.49822e-011
165
root  -65.3428 41.6292 28.6809 1.09387 -46.5627 0.61525
RightUpLeg  -0.223826 -6.26 -1.89506
RightLeg  3.36448 -1.44054 3.50598
RightFoot  -2.72974 0.365671 -5.09508
RightToes  2.91037e-010 0 -3.6325e-017
Spine  -0.227965 -0.778196 3.28011
Spine1  2.57879 0.129602 -4.59838
HEad  -3.53649 0.2149 1.91259
LeftShoulder1  0.499162 -0.962487 -3.00477
LeftArm  -17.1942 13.8176 -5.09167
LeftForeArm  8.59521 -1.82035 -1.33912
LeftHand  -0.244104 0.0205437 5.32207
RightShoulder  0.544378 -0.16403 8.91853
RightArm  -14.704 -2.75025 -3.30218
RightForeArm  -3.5509 1.76761 5.01287
RightHand  -0.771213 1.36925 -13.365
LeftUpLeg  -0.322936 4.00983 2.44008
LeftLeg  -0.282405 7.96755 -3.72892
LeftFoot  -0.77035 -0.102902 1.16323
LeftToes  -2.38291e-010 7.29328e-011 -2.49822e-011
166
root  -65.3555 41.6293 28.7838 1.18184 -46.7168 0.441696
RightUpLeg  0.0116915 -6.22935 -1.88157
RightLeg  3.20579 -1.30036 3.48838
RightFoot  -2.74039 0.354083 -4.94995
RightToes  2.91037e-010 0 -3.6325e-017
Spine  -0.279618 -0.768403 3.26462
Spine1  2.98949 0.086508 -4.30877
HEad  -4.14776 0.36696 1.64329
LeftShoulder1  0.504844 -0.909616 -3.38251
LeftArm  -17.5893 14.0589 -5.04627
LeftForeArm  8.60487 -1.82773 -1.14208
LeftHand  -0.244104 0.0205437 5.32207
RightShoulder  0.472756 -0.571612 8.6595
RightArm  -15.0909 -2.44468 -2.9928
RightForeArm  -3.73309 1.75539 4.94383
RightHand  -0.783379 1.39817 -13.5142
LeftUpLeg  -0.15642 4.17415 2.53787
LeftLeg  -0.222699 7.92329 -3.83345
LeftFoot  -0.947922 -0.114478 1.32577
LeftToes  -2.38291e-010 7.29328e-011 -2.49822e-011
167
root  -65.3663 41.6302 28.8763 1.19366 -46.8903 0.388428
RightUpLeg  0.16155 -6.16373 -1.90085
RightLeg  3.14982 -1.20049 3.38785
RightFoot  -2.78217 0.34044 -4.80034
RightToes  2.91037e-010 0 -3.6325e-017
Spine  -0.578566 -0.751684 2.84281
Spine1  3.99985 -0.0539455 -3.41161
HEad  -5.44964 0.636872 1.0389
LeftShoulder1  0.459182 -0.0743596 -4.83975
LeftArm  -17.5448 13.1427 -4.35303
LeftForeArm  8.26487 -2.11244 -1.3039
LeftHand  -0.244104 0.0205437 5.32207
RightShoulder  0.336957 -1.32284 7.96334
RightArm  -15.4893 -1.5104 -2.3434
RightForeArm  -3.3463 1.24852 4.86729
RightHand  -0.857782 2.00163 -13.6169
LeftUpLeg  0.0763673 4.30951 2.57364
LeftLeg  -0.361815 7.89873 -4.00575
LeftFoot  -0.99614 -0.122354 1.41783
LeftToes  -2.38291e-010 7.29328e-011 -2.49822e-011
168
root  -65.3763 41.6314 28.9605 1.31505 -47.0176 0.426865
RightUpLeg  0.06256 -6.12381 -1.96398
RightLeg  3.19516 -1.1254 3.29864
RightFoot  -2.84831 0.330185 -4.70008
RightToes  2.91037e-010 0 -3.6325e-017
Spine  -0.749429 -0.731961 2.71485
Spine1  4.12625 -0.0589182 -3.28745
HEad  -5.41465 0.668151 1.02372
LeftShoulder1  0.440407 0.15095 -5.16888
LeftArm  -17.2489 12.8788 -3.94303
LeftForeArm  8.44984 -2.55053 -1.50234
LeftHand  -0.244104 0.0205437 5.32207
RightShoulder  0.33976 -1.31212 8.01075
RightArm  -15.3129 -1.30061 -2.53747
RightForeArm  -3.25041 0.860184 4.90231
RightHand  -0.871721 2.17628 -13.5257
LeftUpLeg  0.0788304 4.27666 2.46567
LeftLeg  -0.484007 8.03584 -4.06853
LeftFoot  -0.953616 -0.13816 1.58342
LeftToes  -2.38291e-010 7.29328e-011 -2.49822e-011
169
root  -65.3914 41.6324 29.0479 1.51157 -47.0445 0.408051
RightUpLeg  -0.0190304 -6.08446 -1.99748
RightLeg  3.17603 -1.11899 3.23881
RightFoot  -2.88893 0.321599 -4.61319
RightToes  2.91037e-010 0 -3.6325e-017
Spine  -0.793553 -0.727512 2.81781
Spine1  3.72934 -0.0203249 -3.53597
HEad  -4.64283 0.518631 1.25767
LeftShoulder1  0.464531 -0.184815 -4.75348
LeftArm  -17.1489 13.2606 -3.86353
LeftForeArm  8.806 -2.69682 -1.49513
LeftHand  -0.244104 0.0205437 5.32207
RightShoulder  0.398587 -0.980587 8.24848
RightArm  -15.2967 -1.64304 -2.91726
RightForeArm  -3.77857 1.03667 4.91127
RightHand  -0.810556 1.66541 -13.4694
LeftUpLeg  -0.0117176 4.18224 2.3471
LeftLeg  -0.498531 8.18186 -4.02249
LeftFoot  -0.919071 -0.162419 1.84196
LeftToes  -2.38291e-010 7.29328e-011 -2.49822e-011
170
root  -65.4103 41.6325 29.1368 1.60263 -47.0729 0.333649
RightUpLeg  0.0872916 -6.05342 -2.01769
RightLeg  3.1174 -1.07439 3.19381
RightFoot  -2.92067 0.31201 -4.5071
RightToes  2.91037e-010 0 -3.6325e-017
Spine  -0.284414 -0.699112 3.33996
Spine1  2.41253 0.174845 -4.53112
HEad  -2.905 0.193986 1.92436
LeftShoulder1  0.52701 -1.19474 -3.09975
LeftArm  -17.1888 14.4907 -4.36515
LeftForeArm  9.82714 -2.7475 -1.30786
LeftHand  -0.244104 0.0205437 5.32207
RightShoulder  0.544738 -0.169814 8.92481
RightArm  -15.0111 -2.75495 -3.61812
RightForeArm  -4.17079 1.48894 4.92111
RightHand  -0.774031 1.31194 -13.5207
LeftUpLeg  0.0866397 4.17958 2.31853
LeftLeg  -0.540595 8.23041 -4.02798
LeftFoot  -0.92259 -0.179252 2.02814
LeftToes  -2.38291e-010 7.29328e-011 -2.49822e-011
171
root  -65.4235 41.6311 29.2133 1.56715 -47.2008 0.310181
RightUpLeg  0.215006 -6.08828 -2.0983
RightLeg  3.15779 -0.875483 3.18476
RightFoot  -2.99153 0.302177 -4.41179
RightToes  2.91037e-010 0 -3.6325e-017
Spine  -0.483757 -0.697001 2.81419
Spine1  3.31743 0.0133391 -3.56101
HEad  -4.16749 0.270303 1.42269
LeftShoulder1  0.46146 -0.251427 -4.23985
LeftArm  -17.0986 13.4637 -3.96834
LeftForeArm  10.3843 -2.64786 -1.42327
LeftHand  -0.244104 0.0205437 5.32207
RightShoulder  0.411544 -0.878868 8.20903
RightArm  -15.7122 -1.78438 -2.82419
RightForeArm  -3.59541 1.3415 4.78597
RightHand  -0.818481 1.72425 -13.4909
LeftUpLeg  0.312529 4.24654 2.32013
LeftLeg  -0.646172 8.28071 -4.13146
LeftFoot  -0.957804 -0.179828 2.03772
LeftToes  -2.38291e-010 7.29328e-011 -2.49822e-011
172
root  -65.4278 41.6283 29.2751 1.56586 -47.3555 0.34285
RightUpLeg  0.197869 -6.16355 -2.21493
RightLeg  3.26635 -0.643104 3.20679
RightFoot  -3.086 0.293482 -4.34933
RightToes  2.91037e-010 0 -3.6325e-017
Spine  -0.312224 -0.651757 2.97396
Spine1  3.10884 0.141109 -3.97079
HEad  -3.95429 0.138479 1.73853
LeftShoulder1  0.438389 -0.221259 -3.68433
LeftArm  -16.5969 13.4072 -4.17255
LeftForeArm  10.2743 -2.47649 -1.62126
LeftHand  -0.244104 0.0205437 5.32207
RightShoulder  0.449158 -0.706144 8.62019
RightArm  -15.3294 -1.72139 -3.08061
RightForeArm  -3.16005 1.04508 4.85639
RightHand  -0.884739 2.29652 -13.517
LeftUpLeg  0.40642 4.28098 2.27766
LeftLeg  -0.697543 8.39303 -4.2271
LeftFoot  -1.01393 -0.177591 2.00292
LeftToes  -2.38291e-010 7.29328e-011 -2.49822e-011
173
root  -65.4319 41.6258 29.3333 1.68799 -47.4015 0.329819
RightUpLeg  0.127052 -6.17932 -2.26263
RightLeg  3.2916 -0.592246 3.20351
RightFoot  -3.14543 0.287525 -4.29743
RightToes  2.91037e-010 0 -3.6325e-017
Spine  -0.518707 -0.590137 3.036
Spine1  3.38478 0.199041 -3.93856
HEad  -4.0525 0.103383 1.63819
LeftShoulder1  0.45738 -0.26177 -4.10736
LeftArm  -17.672 13.0698 -3.45811
LeftForeArm  9.55641 -2.64927 -1.25484
LeftHand  -0.244104 0.0205437 5.32207
RightShoulder  0.418568 -0.863267 8.39275
RightArm  -15.2104 -1.48619 -2.83996
RightForeArm  -3.28308 0.930385 4.91916
RightHand  -0.916127 2.43158 -13.7571
LeftUpLeg  0.333184 4.27697 2.23104
LeftLeg  -0.647185 8.45274 -4.24997
LeftFoot  -1.07047 -0.18285 2.0847
LeftToes  -2.38291e-010 7.29328e-011 -2.49822e-011
174
root  -65.445 41.6246 29.3918 1.84474 -47.3432 0.252365
RightUpLeg  0.133044 -6.1185 -2.22826
RightLeg  3.22594 -0.708804 3.15476
RightFoot  -3.16881 0.281906 -4.24481
RightToes  2.91037e-010 0 -3.6325e-017
Spine  -0.819522 -0.582763 3.0962
Spine1  3.78697 0.191228 -3.86141
HEad  -4.17204 0.144626 1.48306
LeftShoulder1  0.484396 -0.363429 -4.52413
LeftArm  -17.9848 12.8654 -2.98207
LeftForeArm  8.82646 -2.69052 -1.16536
LeftHand  -0.244104 0.0205437 5.32207
RightShoulder  0.398727 -0.969055 8.25888
RightArm  -15.367 -1.28973 -2.68397
RightForeArm  -3.42553 1.04016 4.91065
RightHand  -0.911585 2.29915 -13.9146
LeftUpLeg  0.264313 4.28399 2.22864
LeftLeg  -0.582389 8.39555 -4.2407
LeftFoot  -1.11173 -0.192892 2.2409
LeftToes  -2.38291e-010 7.29328e-011 -2.49822e-011
175
root  -65.4655 41.6239 29.4424 1.92468 -47.3081 0.193573
RightUpLeg  0.198611 -6.06243 -2.1972
RightLeg  3.17552 -0.788032 3.10225
RightFoot  -3.20211 0.277331 -4.20752
RightToes  2.91037e-010 0 -3.6325e-017
Spine  -0.861296 -0.559851 3.06434
Spine1  3.81741 0.184827 -3.73405
HEad  -3.95237 0.0948667 1.42659
LeftShoulder1  0.536886 -0.758471 -4.68053
LeftArm  -17.9655 13.1299 -2.75695
LeftForeArm  8.42728 -2.60957 -1.12388
LeftHand  -0.244104 0.0205437 5.32207
RightShoulder  0.420702 -0.821813 8.17385
RightArm  -15.4907 -1.42897 -2.66839
RightForeArm  -3.04288 1.18698 4.84045
RightHand  -0.910387 2.34182 -13.8244
LeftUpLeg  0.293167 4.29644 2.23581
LeftLeg  -0.571622 8.34625 -4.23867
LeftFoot  -1.14792 -0.199161 2.3384
LeftToes  -2.38291e-010 7.29328e-011 -2.49822e-011
176
root  -65.4858 41.6235 29.4832 1.92564 -47.3755 0.198837
RightUpLeg  0.259097 -6.05541 -2.21905
RightLeg  3.16756 -0.723362 3.07181
RightFoot  -3.25711 0.273965 -4.18732
RightToes  2.91037e-010 0 -3.6325e-017
Spine  -0.379759 -0.505426 3.36352
Spine1  2.83565 0.368959 -4.46621
HEad  -2.76043 -0.0465925 1.94648
LeftShoulder1  0.585614 -1.65082 -3.2466
LeftArm  -16.8086 14.2739 -3.67404
LeftForeArm  9.06207 -2.28808 -1.39826
LeftHand  -0.244104 0.0205437 5.32207
RightShoulder  0.556695 -0.090645 8.92237
RightArm  -15.0586 -2.19961 -3.36143
RightForeArm  -2.75658 1.32862 4.86959
RightHand  -0.941393 2.61938 -13.8085
LeftUpLeg  0.386109 4.27988 2.20307
LeftLeg  -0.621127 8.43054 -4.23893
LeftFoot  -1.18114 -0.20089 2.36529
LeftToes  -2.38291e-010 7.29328e-011 -2.49822e-011
